<?xml version="1.0" encoding="UTF-8"?>
<svg width="888px" height="222px" viewBox="0 0 888 222" version="1.1" xmlns="http://www.w3.org/2000/svg" xmlns:xlink="http://www.w3.org/1999/xlink">
    <!-- Generator: Sketch 49.1 (51147) - http://www.bohemiancoding.com/sketch -->
    <title>social</title>
    <desc>Created with Sketch.</desc>
    <defs>
        <rect id="path-1" x="0" y="0" width="888" height="222" rx="3"></rect>
        <path d="M913.609809,428.071904 C921.313712,433.500161 926.001718,442.767681 925.121175,452.832332 C923.804645,467.880346 910.53856,479.011912 895.490547,477.695382 C880.442533,476.378851 869.310967,463.112767 870.627497,448.064753 C871.847129,434.124301 883.322029,423.544997 896.968454,423.109908 C894.568911,421.421728 892.40223,419.315652 890.581466,416.809584 C888.303841,413.674703 886.788753,410.218443 886.00115,406.662098 C879.38171,401.120464 875.485136,392.54169 876.29462,383.289249 C876.543785,380.44128 877.22097,377.733593 878.257248,375.224026 C873.937839,375.820866 869.538017,375.373462 865.443967,373.942978 C866.056977,376.643237 866.267077,379.483233 866.012794,382.389706 C864.785228,396.420851 853.168522,407.046973 839.405222,407.351754 C838.939685,407.739307 838.458266,408.114129 837.961106,408.475338 C825.740504,417.354125 808.63607,414.645048 799.757283,402.424447 C797.3717,399.140973 795.822654,395.504932 795.069871,391.770601 C789.531392,398.455918 780.909542,402.39953 771.606661,401.585633 C763.2331,400.853042 756.072241,396.420347 751.594115,390.039464 C750.288179,391.520121 748.800702,392.881394 747.136923,394.0902 C737.796236,400.876606 725.602344,400.893214 716.409129,395.067186 C713.375461,395.894381 710.146558,396.208571 706.831157,395.918511 C704.832069,395.743613 702.9021,395.357825 701.061253,394.784985 C703.461542,398.304739 704.930625,402.198819 705.516037,406.167103 C705.654406,406.177128 705.792934,406.188204 705.931614,406.200337 C720.979628,407.516868 732.111194,420.782952 730.794664,435.830966 C729.478133,450.878979 716.212049,462.010546 701.164035,460.694015 C688.296952,459.568291 678.293349,449.705744 676.487014,437.462936 C672.612952,437.181388 668.811548,436.079925 665.362262,434.202809 C662.251735,447.150876 650.055012,456.222555 636.388531,455.026893 C621.340518,453.710362 610.208951,440.444278 611.525482,425.396264 C612.842012,410.348251 626.108097,399.216684 641.15611,400.533215 C645.03617,400.872676 648.655848,402.006594 651.868889,403.760668 C653.339237,397.660432 656.904934,392.032391 662.379331,388.055009 C669.648654,382.773537 678.646056,381.592274 686.612296,384.074202 C683.177544,379.040121 681.395525,372.832531 681.968108,366.287883 C682.677384,358.180816 686.854994,351.21049 692.911025,346.711 C684.436843,346.725703 676.075352,342.8145 670.713577,335.434649 C667.490024,330.997809 665.793917,325.91721 665.525888,320.82023 C660.488823,324.262482 654.274703,326.049104 647.722776,325.475885 C639.412305,324.748813 632.296331,320.377185 627.811907,314.073613 C626.033805,319.127874 622.755801,323.712837 618.093217,327.100403 C605.872616,335.97919 588.768181,333.270114 579.889394,321.049512 C579.419464,320.402708 578.981994,319.742222 578.576678,319.069999 C565.805694,315.832436 556.898795,303.727637 558.084223,290.178134 C558.41896,286.352067 559.526198,282.779185 561.238811,279.599723 C553.691831,278.887744 546.475834,275.059691 541.669872,268.444852 C537.060418,262.100483 535.57413,254.439822 536.920481,247.297179 C532.925606,248.99864 528.466507,249.771001 523.83889,249.366136 C508.790877,248.049606 497.65931,234.783522 498.975841,219.735508 C500.292372,204.687494 513.558456,193.555928 528.606469,194.872459 C543.654483,196.188989 554.786049,209.455073 553.469519,224.503087 C553.389886,225.413299 553.266532,226.309182 553.10171,227.188848 C556.536104,225.726397 560.1729,225.013795 563.787929,225.015531 C565.272967,210.391294 578.063333,199.569534 592.69888,200.48826 C594.558982,197.256513 597.113726,194.354941 600.325423,192.021506 C612.546025,183.142719 629.650459,185.851795 638.529246,198.072397 C640.997085,201.469086 642.569704,205.243076 643.291688,209.112868 C647.722358,206.835495 652.828169,205.740449 658.157477,206.206703 C668.311891,207.095099 676.682925,213.4248 680.64902,222.071549 C682.125405,215.987005 685.687402,210.375167 691.149606,206.406644 C703.370208,197.527857 720.474642,200.236933 729.353429,212.457535 C729.595277,212.790411 729.828528,213.12691 730.053223,213.466768 C741.32879,217.636522 748.89437,228.950373 747.79603,241.504454 C747.397892,246.055201 745.906907,250.24777 743.604287,253.846198 C750.264184,253.403224 756.978643,255.403763 762.347114,259.625988 C759.158477,254.695791 757.526488,248.706166 758.077856,242.403997 C759.394387,227.355983 772.660471,216.224417 787.708485,217.540948 C787.742732,217.543944 787.776959,217.547002 787.811166,217.550122 C799.182251,212.950589 812.642285,216.471185 820.177611,226.842672 C822.928869,230.629454 824.567477,234.885174 825.155212,239.219785 C827.359452,234.325426 830.94829,230.234695 835.383623,227.399118 C832.79708,225.659324 830.466234,223.44444 828.527557,220.776081 C821.368329,210.922249 821.743151,197.893109 828.563504,188.561293 C828.383324,186.842501 828.364228,185.081609 828.520483,183.295615 C829.837013,168.247602 843.103097,157.116035 858.151111,158.432566 C873.199125,159.749097 884.330691,173.015181 883.01416,188.063195 C882.562883,193.221321 880.707572,197.919278 877.857732,201.813451 C878.846305,211.214636 874.928637,220.871317 866.73138,226.826972 C866.283537,227.152349 865.829135,227.462164 865.36882,227.756519 C868.305531,229.735828 870.824533,232.264653 872.790826,235.182112 C872.793207,235.18038 872.795589,235.178649 872.797971,235.176918 C881.237288,229.045395 892.005716,228.440151 900.785783,232.677365 C905.204931,230.01659 910.411579,228.579413 915.900569,228.789711 C914.56731,225.282116 913.9963,221.589722 914.1509,217.943856 C901.186406,214.845296 892.099376,202.640062 893.295986,188.962738 C894.612517,173.914724 907.878601,162.783158 922.926615,164.099688 C937.559938,165.379938 948.489698,177.96021 947.870324,192.490519 C953.982288,193.956326 959.622451,197.524776 963.606454,203.008287 C972.485241,215.228888 969.776165,232.333323 957.555563,241.21211 C952.396588,244.960324 946.367246,246.64342 940.453812,246.417608 C941.873956,250.152586 942.494159,254.258214 942.122542,258.505821 C940.806011,273.553834 927.539927,284.685401 912.491914,283.36887 C909.080897,283.070445 905.871115,282.15803 902.961935,280.750048 C890.934486,287.995411 875.153733,284.951506 866.74708,273.380741 C866.554089,273.115112 866.366573,272.847175 866.18451,272.577065 C863.300953,274.675456 860.002068,276.218316 856.455713,277.064796 C857.138818,277.813666 857.787374,278.608069 858.397134,279.447332 C861.974332,284.370923 863.670559,290.087269 863.621605,295.73903 C869.22902,301.265472 872.419692,309.158517 871.679916,317.614202 C871.579851,318.757953 871.410753,319.879078 871.177086,320.973831 C874.768888,320.539021 878.406795,320.823076 881.869551,321.790944 C881.835605,320.710795 881.865214,319.61706 881.961742,318.513745 C883.079237,305.740721 892.806289,295.789465 904.92472,293.87765 C906.576915,291.593769 908.613109,289.528466 911.017494,287.781578 C923.238096,278.902791 940.34253,281.611868 949.221317,293.832469 C958.100104,306.053071 955.391028,323.157505 943.170426,332.036292 C939.552843,334.66462 935.50729,336.277506 931.373835,336.928811 C925.918398,344.456601 916.759972,349.01359 906.824791,348.144374 C905.10387,347.993813 903.434171,347.686967 901.828454,347.239046 C901.951024,351.114495 901.250255,354.985834 899.769817,358.577342 C901.768768,358.300926 903.82973,358.242866 905.925248,358.4262 C918.1126,359.492455 927.73102,368.396833 930.248156,379.737887 C931.937718,381.151492 933.482544,382.793533 934.83618,384.656652 C943.714966,396.877254 941.00589,413.981688 928.785288,422.860475 C924.18566,426.202301 918.894168,427.90254 913.609809,428.071904 Z M560.398526,398.379175 C559.809032,392.098338 561.404044,385.722608 564.996999,380.429912 C560.907841,377.827942 557.58154,374.179648 555.362509,369.895484 C549.195301,371.266524 542.725709,370.449123 537.108175,367.626128 C533.835106,372.175047 529.213397,375.647811 523.883681,377.506868 C524.599172,382.497807 523.918497,387.601658 521.936124,392.221943 C531.403677,397.196405 537.458599,407.508734 536.468152,418.829599 C535.151621,433.877612 521.885537,445.009179 506.837524,443.692648 C491.78951,442.376118 480.657944,429.110033 481.974474,414.06202 C482.235708,411.0761 482.967432,408.244381 484.090209,405.63352 C480.479645,403.741331 477.238397,401.009786 474.680074,397.488557 C465.801287,385.267955 468.510364,368.163521 480.730965,359.284734 C482.95566,357.6684 485.342205,356.436089 487.811512,355.575276 C487.519026,353.534687 487.454183,351.428656 487.641596,349.286516 C488.958127,334.238502 502.224211,323.106936 517.272225,324.423466 C520.835677,324.735228 524.179507,325.717083 527.190421,327.234012 C528.851899,324.921244 530.905742,322.830626 533.335625,321.065212 C545.556227,312.186425 562.660661,314.895501 571.539448,327.116103 C572.363418,328.2502 573.087591,329.426358 573.713626,330.634099 C576.380184,330.040657 579.181636,329.839838 582.047729,330.090589 C597.095742,331.407119 608.227309,344.673203 606.910778,359.721217 C606.488833,364.544068 604.839447,368.964626 602.297347,372.702021 C605.126027,374.497134 607.670135,376.845727 609.758971,379.720763 C618.637758,391.941365 615.928682,409.045799 603.70808,417.924586 C602.902161,418.51012 602.075002,419.045258 601.230363,419.530595 C601.38244,421.154224 601.390845,422.814336 601.243656,424.496721 C599.927125,439.544735 586.661041,450.676301 571.613027,449.35977 C556.565014,448.04324 545.433447,434.777156 546.749978,419.729142 C547.560573,410.463997 552.901164,402.683551 560.398526,398.379175 Z M847.810613,354.186823 C846.925199,350.279184 846.919822,346.247298 847.74789,342.385339 C845.892299,342.609956 843.985544,342.646652 842.049287,342.477252 C827.730437,341.224515 816.95768,329.152216 817.08157,315.020403 C816.026472,313.979481 815.042207,312.838714 814.14242,311.600264 C805.263633,299.379662 807.972709,282.275228 820.193311,273.396441 C823.203534,271.209386 826.510085,269.725429 829.917032,268.913536 C826.229929,264.879826 823.753176,259.757175 822.994045,254.150124 C821.104762,258.356618 818.124753,262.141754 814.12672,265.046495 C808.541362,269.104495 801.935822,270.741911 795.561686,270.156974 C791.685968,271.724539 787.391368,272.423991 782.940906,272.034626 C777.435602,271.552974 772.454497,269.471926 768.415364,266.289364 C771.753459,271.443117 773.142465,277.34992 772.726896,283.097348 C775.68376,282.322926 778.821776,282.034774 782.041363,282.316452 C797.089376,283.632982 808.220943,296.899066 806.904412,311.94708 C806.731286,313.92592 806.35152,315.837034 805.788235,317.661021 C805.789648,317.662966 805.791061,317.66491 805.792474,317.666855 C814.671261,329.887457 811.962185,346.991891 799.741583,355.870678 C798.547419,356.738289 797.30662,357.495251 796.03142,358.143502 C798.354265,361.302189 800.007725,364.965571 800.804585,368.910534 C802.237201,367.181162 803.907668,365.601422 805.808174,364.220624 C810.484252,360.823254 815.875385,359.122493 821.247137,359.002018 C826.601729,354.535722 833.654707,352.103347 841.149744,352.759078 C843.473941,352.962419 845.704709,353.450821 847.810613,354.186823 Z M620.887252,376.914332 C619.892831,375.916821 618.962832,374.829485 618.108917,373.654172 C609.23013,361.43357 611.939206,344.329136 624.159808,335.450349 C636.38041,326.571562 653.484844,329.280638 662.363631,341.50124 C662.87965,342.21148 663.356529,342.938216 663.794675,343.678874 C669.298507,349.196775 672.418696,357.01681 671.686282,365.388339 C670.369751,380.436353 657.103667,391.567919 642.055654,390.251389 C632.919339,389.452065 625.226721,384.247847 620.887252,376.914332 Z M709.144029,341.319136 C709.955806,341.317965 710.774599,341.35273 711.598736,341.424833 C716.117361,341.820162 720.282845,343.292961 723.864189,345.567936 C734.513902,342.666451 746.31512,346.426926 753.187814,355.886377 C753.27939,356.012421 753.369733,356.138984 753.458846,356.266052 C755.751662,353.66548 758.524753,351.513453 761.624663,349.938737 C761.595608,349.899188 761.566641,349.859537 761.53776,349.819787 C756.270285,342.56973 755.081316,333.600742 757.537296,325.650183 C753.866033,320.606454 751.894561,314.291665 752.376831,307.604339 C748.925956,308.507176 745.35987,308.713799 741.88435,308.2568 C739.900404,320.623595 729.760472,329.944351 717.538162,331.122704 C715.67816,335.036353 712.860079,338.561666 709.144029,341.319136 Z M674.398677,285.653014 C676.150632,289.029301 677.214613,292.801198 677.421834,296.767553 C681.347398,294.085075 685.739759,292.562044 690.182007,292.13243 C694.951193,282.122299 705.570328,275.626103 717.265859,276.649329 C717.661521,276.683945 718.054476,276.726822 718.444568,276.777776 C719.034668,273.12365 720.361988,269.588151 722.388149,266.413592 C721.002354,266.505245 719.591884,266.492304 718.165402,266.367503 C709.514926,265.610685 702.158688,260.904992 697.717434,254.181956 C692.824697,252.373155 688.394879,249.147247 685.098715,244.610466 C684.010616,243.112827 683.096551,241.541839 682.352697,239.921632 C681.359555,244.024878 679.453541,247.737539 676.877556,250.855796 C684.632059,261.707969 683.326668,276.331949 674.398677,285.653014 Z M630.330915,279.333265 C625.253629,269.559212 626.608376,257.711349 633.514766,249.348225 C631.23105,246.153261 629.624593,242.459196 628.883429,238.49012 C624.408344,240.791812 619.503643,241.749578 614.700576,241.447561 C609.928911,249.714054 600.99565,255.146865 591.007719,255.138976 C590.645348,258.685932 589.594201,262.155343 587.888548,265.330828 C596.872656,266.173397 604.443371,271.278502 608.774083,278.469273 C614.744863,279.988108 620.239777,283.522729 624.144108,288.89658 C624.199289,288.972529 624.254022,289.048667 624.308308,289.124991 C625.614928,285.414034 627.691025,282.092596 630.330915,279.333265 Z M525.724905,313.759925 C513.644379,321.353086 497.575912,318.378349 489.065212,306.664375 C480.186425,294.443773 482.895501,277.339339 495.116103,268.460552 C498.473039,266.021595 502.198496,264.457026 506.020744,263.723808 C510.892336,260.662833 516.765887,259.107855 522.939347,259.647963 C537.987361,260.964493 549.118927,274.230577 547.802397,289.278591 C546.712255,301.738967 537.428873,311.514023 525.724905,313.759925 Z M417.340822,414.482512 C417.072415,412.504777 417.017709,410.466726 417.19897,408.394897 C418.515501,393.346884 431.781585,382.215317 446.829599,383.531848 C461.877612,384.848379 473.009179,398.114463 471.692648,413.162476 C471.610364,414.10299 471.4814,415.028204 471.30824,415.936036 C472.615698,425.58881 468.711958,435.632241 460.279237,441.758971 C448.058635,450.637758 430.954201,447.928682 422.075414,435.70808 C417.4492,429.340643 415.968905,421.647323 417.340822,414.482515 Z M366.643201,429.168741 C354.737379,435.789902 339.492588,432.636838 331.271525,421.350838 C326.075283,425.238211 319.484485,427.301381 312.511012,426.691281 C299.058156,425.514309 288.735434,414.78692 287.638762,401.773945 C285.758261,406.107746 282.72952,410.010854 278.630872,412.988696 C273.728806,416.550255 268.040901,418.247254 262.413303,418.21371 C258.026464,420.425965 252.989603,421.483833 247.735508,421.024159 C232.687494,419.707628 221.555928,406.441544 222.872459,391.393531 C224.123115,377.098458 236.15743,366.337711 250.258923,366.425286 C262.02172,360.488655 276.686642,363.780534 284.681763,374.784873 C287.721196,378.968295 289.402687,383.724035 289.80953,388.526197 C292.109059,383.241031 296.013996,378.868776 300.860852,375.966167 C297.88492,374.14349 295.210622,371.717299 293.031709,368.718283 C285.808069,358.775796 286.254657,345.600608 293.253308,336.252523 C293.179353,334.948948 293.197942,333.624103 293.315085,332.285149 C294.631615,317.237135 307.8977,306.105569 322.945713,307.4221 C329.895777,308.030151 336.010408,311.187209 340.449059,315.891549 C339.976354,306.947297 343.901407,297.95169 351.68726,292.294937 C356.096861,289.091174 361.14234,287.39616 366.207805,287.112346 C364.242301,282.903527 363.323751,278.136952 363.757711,273.176767 C364.637127,263.124994 370.848404,254.820728 379.361069,250.806839 C371.897436,250.039584 364.778757,246.22237 360.021506,239.674577 C355.648141,233.655156 354.086207,226.450825 355.087574,219.628235 C349.805641,228.055007 340.100078,233.291073 329.512379,232.36477 C323.284428,231.819895 317.727326,229.228181 313.445898,225.310432 C311.802328,227.568036 309.782291,229.610328 307.401146,231.340331 C295.640686,239.884805 279.357251,237.697622 270.234547,226.629299 C268.442337,226.83273 266.603312,226.86094 264.736875,226.697647 C249.688861,225.381117 238.557295,212.115033 239.873825,197.067019 C241.190356,182.019005 254.45644,170.887439 269.504454,172.20397 C277.105459,172.868971 283.707211,176.582819 288.210174,182.035138 C295.939453,181.156598 303.863273,183.600955 309.779761,189.019467 C315.240916,181.531766 324.37437,177.004465 334.279958,177.871092 C349.327971,179.187622 360.459538,192.453707 359.143007,207.50172 C359.096466,208.033689 359.034991,208.560763 358.959032,209.082565 C360.765948,206.193733 363.146568,203.596493 366.072397,201.470754 C368.095013,200.001238 370.251412,198.849149 372.482159,198.005075 C377.469634,188.574918 387.760593,182.550041 399.055462,183.538214 C414.103475,184.854745 425.235042,198.120829 423.918511,213.168843 C422.972316,223.983899 415.853766,232.775976 406.337438,236.377827 C404.446539,239.963297 401.726231,243.181914 398.225329,245.725468 C396.806858,246.756048 395.322588,247.630507 393.79302,248.352093 C398.383933,248.821226 402.599647,250.404577 406.194428,252.809295 C417.545395,245.914516 432.273227,248.215476 440.982215,258.224042 C443.989764,256.286342 447.389881,254.927201 451.013612,254.288389 C450.957317,254.212538 450.901341,254.136313 450.845689,254.059714 C447.48013,249.42742 445.779557,244.093399 445.630883,238.771648 C437.975036,233.335642 433.322878,224.097793 434.200337,214.068386 C435.516868,199.020372 448.782952,187.888806 463.830966,189.205336 C477.810107,190.428353 488.409418,201.963641 488.789199,215.659964 C491.158586,217.339072 493.298826,219.427125 495.100403,221.906783 C503.97919,234.127384 501.270114,251.231819 489.049512,260.110606 C485.573971,262.635734 481.703409,264.223596 477.739387,264.921954 C481.592537,270.107168 483.634217,276.669717 483.026893,283.611469 C482.260644,292.369728 477.446504,299.801297 470.589107,304.224087 C474.487033,306.122827 477.988934,308.978492 480.715266,312.730965 C488.907627,324.006783 487.234598,339.440477 477.327218,348.734075 C475.838722,363.605769 462.661221,374.55641 447.729142,373.250022 C442.280932,372.773365 437.346106,370.730315 433.32957,367.603422 C433.149498,375.854586 429.2518,383.928955 422.059714,389.154311 C416.861422,392.931091 410.779447,394.611156 404.822783,394.354314 C406.541952,398.364382 407.324018,402.84477 406.917144,407.495354 C405.600614,422.543368 392.334529,433.674934 377.286516,432.358404 C373.434392,432.021386 369.838914,430.901312 366.643201,429.168741 Z M366.405076,381.189668 C370.678469,378.814896 375.629737,377.560055 380.830318,377.784753 C379.32548,374.2751 378.605055,370.552355 378.631071,366.856265 C366.472441,363.797424 357.803859,352.705054 357.987733,339.969824 C354.233762,338.537353 350.761473,336.265943 347.877016,333.204084 C347.943276,334.469347 347.922351,335.754405 347.808763,337.052728 C347.347783,342.321749 345.421751,347.110601 342.467154,351.053028 C342.981331,360.0366 339.056069,369.08722 331.235532,374.769174 C330.568087,375.2541 329.886075,375.704461 329.19163,376.120594 C332.254962,378.001595 334.905211,380.463714 337.002307,383.340018 C337.1016,383.265833 337.201539,383.192198 337.302123,383.11912 C346.102331,376.725394 357.435109,376.340694 366.405076,381.189668 Z M195.324112,362.637536 C206.33571,366.946405 213.673435,378.117502 212.590633,390.493987 C211.274102,405.542001 198.008018,416.673567 182.960004,415.357037 C173.791962,414.554937 166.077661,409.317297 161.746514,401.943501 C157.042397,400.104504 152.792014,396.942153 149.602866,392.552668 C148.684212,391.28825 147.88961,389.971549 147.216758,388.617086 C146.273614,392.711309 144.424038,396.424939 141.906097,399.558215 C149.119992,410.397591 147.604047,424.681445 138.725265,433.778865 C141.351322,438.424272 142.648239,443.884691 142.148006,449.602369 C140.831476,464.650383 127.565392,475.781949 112.517378,474.465418 C97.4693644,473.148888 86.337798,459.882804 87.6543286,444.83479 C88.2263198,438.2969 91.0539444,432.498291 95.3033394,428.138656 C89.7445614,418.316445 90.8816162,406.173331 97.785062,397.577575 C95.5788091,394.260915 94.0836527,390.449423 93.4954644,386.376528 C89.2527696,388.582617 84.6188652,389.576367 80.0485775,389.429815 C75.3761403,398.377486 65.9423905,404.293352 55.3850317,404.125017 C54.8847124,407.674693 53.6911728,411.124421 51.8392719,414.254111 C52.0622492,414.268212 52.2856541,414.285038 52.5094532,414.304618 C67.5574668,415.621149 78.6890332,428.887233 77.3725026,443.935247 C76.055972,458.98326 62.7898878,470.114827 47.7418741,468.798296 C32.6938605,467.481766 21.5622941,454.215681 22.8788247,439.167668 C23.2484345,434.943009 24.5598832,431.027036 26.5881841,427.608536 C18.7372919,427.111459 11.1591299,423.248464 6.17402304,416.387053 C-2.70476391,404.166451 0.00431231767,387.062017 12.2249141,378.18323 C17.2042449,374.565535 22.9943827,372.87164 28.708538,372.961093 C30.6423433,359.146912 42.7188653,348.987961 56.6512223,349.437759 C58.5446104,345.801532 61.2875794,342.537118 64.8295742,339.963708 C65.3403352,339.592618 65.8596273,339.241771 66.3864936,338.911013 C64.0300901,339.340993 61.5777274,339.466151 59.0761187,339.247288 C55.3175444,338.918456 51.8033021,337.844137 48.6663345,336.182767 C38.3449355,338.489333 27.1711771,334.663531 20.5591604,325.562871 C11.6803734,313.342269 14.3894497,296.237835 26.6100515,287.359048 C35.3336399,281.02099 46.5458902,280.587777 55.4781773,285.304133 C58.1541455,284.705264 60.9663463,284.501875 63.8436977,284.753611 C67.1424828,285.042217 70.2530582,285.905074 73.0855451,287.235067 C70.2962511,283.357064 68.6677842,278.993434 68.1342589,274.560162 C67.0171472,274.59992 65.8853262,274.571704 64.7432409,274.471785 C49.6952273,273.155254 38.5636609,259.88917 39.8801915,244.841156 C40.0100002,243.357436 40.2559798,241.91179 40.6083841,240.512398 C38.495739,238.919448 36.5803695,236.990547 34.9442978,234.738688 C26.0655108,222.518086 28.774587,205.413652 40.9951889,196.534865 C43.0642914,195.031574 45.2733977,193.860469 47.5588788,193.011474 C45.8974843,189.051446 45.1470304,184.640912 45.5473138,180.065652 C46.8638444,165.017639 60.1299286,153.886072 75.1779422,155.202603 C90.2259559,156.519133 101.357522,169.785218 100.040992,184.833231 C99.0897457,195.706022 91.9000687,204.534177 82.3073109,208.099454 C84.6373384,213.652809 85.0138862,219.726259 83.5863868,225.376325 C89.4189984,229.778926 93.3836549,236.439079 94.2845572,243.931685 C98.0995838,243.794683 101.91332,244.455949 105.462754,245.873827 C107.637615,237.641161 113.50701,231.045834 121.057292,227.777496 C122.064853,222.639969 124.540518,217.780006 128.375732,213.883001 C116.929083,209.807424 109.214439,198.401601 110.322818,185.732774 C111.639348,170.684761 124.905432,159.553194 139.953446,160.869725 C155.00146,162.186256 166.133026,175.45234 164.816496,190.500354 C164.24072,197.081493 161.37937,202.913539 157.082965,207.282819 C162.103006,209.0678 166.654979,212.334942 170.023195,216.970893 C178.901982,229.191495 176.192905,246.295929 163.972303,255.174716 C162.308782,256.383335 160.554764,257.377233 158.743316,258.161647 C156.098625,271.72 143.587458,281.36976 129.518745,280.138907 C126.773796,279.898755 124.159164,279.260989 121.726635,278.287323 C120.171756,284.156267 116.662466,289.547325 111.367643,293.394239 C103.019007,299.459878 92.3910448,300.117361 83.6635431,296.028701 C87.3583613,301.160323 89.3011057,307.59069 88.7067471,314.384239 C87.9297556,323.265293 82.9905699,330.782194 75.9793306,335.181107 C86.0004516,333.353766 96.6456752,337.222654 103.033397,346.014599 C105.735235,349.73336 107.364036,353.904365 107.978308,358.158208 C112.433915,355.842946 117.579423,354.72619 122.952079,355.196237 C132.808954,356.058601 140.985429,362.048066 145.083705,370.307042 C146.515721,364.109745 150.103897,358.381055 155.653757,354.348845 C167.874359,345.470058 184.978793,348.179134 193.85758,360.399736 C194.387565,361.129198 194.876262,361.87606 195.324112,362.637536 Z M431.372962,326.080807 C432.125603,318.594911 435.945764,311.450319 442.511443,306.680074 C442.92796,306.377457 443.35015,306.088301 443.777495,305.812524 C440.465727,304.194811 437.546481,301.933734 435.167281,299.205108 C425.82391,305.228078 414.019941,304.858683 405.176622,298.955563 C401.43736,301.224837 397.129514,302.616048 392.561159,302.87069 C394.336128,306.670062 395.170509,310.745715 395.113886,314.784573 C405.57641,318.78172 412.775464,328.954594 412.689226,340.51017 C416.303962,341.422268 419.745611,343.072691 422.767172,345.422316 C422.780454,344.824657 422.813243,344.223461 422.866093,343.619394 C423.475755,336.650918 426.647947,330.522308 431.372962,326.080807 Z M208.081122,301.960855 C211.487649,304.686618 214.211726,308.200957 215.997992,312.199546 C221.883579,310.315388 228.194626,310.511658 233.878285,312.621603 C237.723619,307.488742 243.312203,303.79004 249.681155,302.333449 C249.324326,298.049013 249.981835,293.72876 251.594537,289.746115 C244.553647,287.029857 239.000394,281.513252 236.166587,274.664303 C231.060816,274.183564 226.106318,272.276635 221.946827,269.045473 C220.032532,273.661879 216.902375,277.60586 212.98641,280.516556 C214.40599,287.971574 212.664502,295.791408 208.081122,301.960855 Z M169.045504,307.031215 C167.172039,305.533607 165.466047,303.762838 163.988003,301.728485 C155.165764,289.585715 157.784255,272.621123 169.806558,263.695303 C169.345225,261.274879 169.205842,258.751246 169.431199,256.175401 C170.74773,241.127387 184.013814,229.995821 199.061828,231.312351 C204.50603,231.788657 209.437604,233.829054 213.452535,236.952053 C215.316643,232.445741 218.409109,228.381644 222.643554,225.30514 C234.864156,216.426353 251.96859,219.135429 260.847377,231.356031 C262.146946,233.144733 263.198261,235.038064 264.007835,236.994917 C278.969335,238.396337 290.011934,251.618979 288.700381,266.610102 C288.456276,269.400235 287.801359,272.055725 286.800442,274.522188 C291.553374,276.353954 295.850023,279.533039 299.0669,283.960691 C307.945687,296.181293 305.236611,313.285727 293.016009,322.164514 C289.933066,324.404403 286.539304,325.906814 283.045201,326.705083 C283.172494,328.237612 283.171829,329.801739 283.033259,331.385606 C281.716728,346.433619 268.450644,357.565186 253.40263,356.248655 C250.894446,356.029217 248.495067,355.477799 246.244001,354.641484 C244.639766,356.785181 242.691055,358.727733 240.411349,360.384036 C228.190747,369.262823 211.086313,366.553747 202.207526,354.333145 C201.062975,352.757805 200.110984,351.101309 199.347105,349.391738 C195.987193,350.468215 192.362046,350.908296 188.627126,350.581533 C173.579113,349.265002 162.447546,335.998918 163.764077,320.950904 C164.221919,315.717743 166.12494,310.958237 169.045504,307.031215 Z M112.408944,341.273756 C103.583209,336.09626 98.0374622,326.15503 98.9885731,315.283782 C100.305104,300.235769 113.571188,289.104202 128.619202,290.420733 C136.225341,291.086184 142.830877,294.804601 147.334043,300.262953 C150.500467,302.114734 153.343858,304.637382 155.638057,307.795076 C164.516844,320.015678 161.807768,337.120112 149.587166,345.998899 C137.82171,354.547003 121.529435,352.35433 112.408944,341.273756 Z M302.912494,255.584731 C304.354335,249.411904 307.93691,243.708658 313.467737,239.690277 C325.688339,230.81149 342.792773,233.520566 351.67156,245.741168 C358.372869,254.964729 358.473092,266.97039 352.864951,276.121729 C349.830359,289.173307 337.580051,298.341912 323.845256,297.140274 C308.797243,295.823743 297.665676,282.557659 298.982207,267.509645 C299.365069,263.133511 300.75852,259.088597 302.912494,255.584731 Z M426.573073,948.484545 C414.352471,957.363332 397.248037,954.654256 388.36925,942.433654 C379.490463,930.213052 382.199539,913.108618 394.420141,904.229831 C406.640743,895.351044 423.745177,898.06012 432.623964,910.280722 C441.502751,922.501324 438.793675,939.605758 426.573073,948.484545 Z M791.045187,925.456787 C775.997173,924.140256 764.865607,910.874172 766.182138,895.826158 C767.498668,880.778145 780.764753,869.646578 795.812766,870.963109 C810.86078,872.279639 821.992346,885.545724 820.675816,900.593737 C819.359285,915.641751 806.093201,926.773317 791.045187,925.456787 Z M855.820691,931.123909 C840.772677,929.807378 829.641111,916.541294 830.957642,901.49328 C832.274172,886.445267 845.540256,875.3137 860.58827,876.630231 C875.636284,877.946762 886.76785,891.212846 885.451319,906.260859 C884.134789,921.308873 870.868705,932.440439 855.820691,931.123909 Z M306.84389,491.466785 C291.795876,490.150255 280.66431,476.88417 281.98084,461.836157 C283.297371,446.788143 296.563455,435.656577 311.611469,436.973107 C326.659482,438.289638 337.791049,451.555722 336.474518,466.603736 C335.157988,481.651749 321.891903,492.783316 306.84389,491.466785 Z M242.068386,485.799663 C227.020372,484.483132 215.888806,471.217048 217.205336,456.169034 C218.521867,441.121021 231.787951,429.989454 246.835965,431.305985 C261.883978,432.622516 273.015545,445.8886 271.699014,460.936614 C270.382484,475.984627 257.116399,487.116194 242.068386,485.799663 Z M177.292882,480.132541 C162.244868,478.81601 151.113302,465.549926 152.429832,450.501912 C153.746363,435.453899 167.012447,424.322332 182.060461,425.638863 C197.108475,426.955393 208.240041,440.221478 206.92351,455.269491 C205.60698,470.317505 192.340896,481.449071 177.292882,480.132541 Z M199.961371,221.030525 C184.913357,219.713995 173.781791,206.44791 175.098322,191.399897 C176.414852,176.351883 189.680936,165.220317 204.72895,166.536847 C219.776964,167.853378 230.90853,181.119462 229.591999,196.167476 C228.275469,211.215489 215.009385,222.347056 199.961371,221.030525 Z M540.840257,55.0396249 C525.792244,53.7230943 514.660677,40.45701 515.977208,25.4089964 C517.293738,10.3609828 530.559823,-0.77058361 545.607836,0.54594699 C560.65585,1.86247759 571.787416,15.1285618 570.470886,30.1765754 C569.154355,45.2245891 555.888271,56.3561555 540.840257,55.0396249 Z M799.942273,77.7081139 C784.894259,76.3915833 773.762693,63.1254991 775.079223,48.0774855 C776.395754,33.0294718 789.661838,21.8979054 804.709852,23.214436 C819.757865,24.5309666 830.889432,37.7970509 829.572901,52.8450645 C828.25637,67.8930781 814.990286,79.0246445 799.942273,77.7081139 Z M605.615761,60.7067471 C590.567747,59.3902165 579.436181,46.1241323 580.752712,31.0761187 C582.069242,16.028105 595.335326,4.89653865 610.38334,6.21306925 C625.431354,7.52959985 636.56292,20.7956841 635.246389,35.8436977 C633.929859,50.8917113 620.663775,62.0232777 605.615761,60.7067471 Z M735.166769,72.0409916 C720.118755,70.724461 708.987189,57.4583768 710.303719,42.4103632 C711.62025,27.3623496 724.886334,16.2307832 739.934348,17.5473138 C754.982361,18.8638444 766.113928,32.1299286 764.797397,47.1779422 C763.480867,62.2259559 750.214782,73.3575222 735.166769,72.0409916 Z M788.608028,207.259122 C773.560014,205.942591 762.428448,192.676507 763.744979,177.628493 C765.061509,162.58048 778.327594,151.448913 793.375607,152.765444 C808.423621,154.081974 819.555187,167.348059 818.238657,182.396072 C816.922126,197.444086 803.656042,208.575652 788.608028,207.259122 Z M594.281516,190.257755 C579.233503,188.941224 568.101936,175.67514 569.418467,160.627126 C570.734998,145.579113 584.001082,134.447546 599.049096,135.764077 C614.097109,137.080608 625.228676,150.346692 623.912145,165.394705 C622.595614,180.442719 609.32953,191.574285 594.281516,190.257755 Z M723.832524,201.591999 C708.784511,200.275469 697.652944,187.009385 698.969475,171.961371 C700.286005,156.913357 713.55209,145.781791 728.600103,147.098322 C743.648117,148.414852 754.779683,161.680936 753.463153,176.72895 C752.146622,191.776964 738.880538,202.90853 723.832524,201.591999 Z M659.05702,195.924877 C644.009007,194.608347 632.87744,181.342262 634.193971,166.294249 C635.510502,151.246235 648.776586,140.114669 663.824599,141.431199 C678.872613,142.74773 690.004179,156.013814 688.687649,171.061828 C687.371118,186.109841 674.105034,197.241408 659.05702,195.924877 Z M765.939539,466.361137 C750.891525,465.044607 739.759959,451.778522 741.07649,436.730509 C742.39302,421.682495 755.659104,410.550929 770.707118,411.867459 C785.755132,413.18399 796.886698,426.450074 795.570168,441.498088 C794.253637,456.546101 780.987553,467.677668 765.939539,466.361137 Z M830.715043,472.028259 C815.667029,470.711729 804.535463,457.445645 805.851994,442.397631 C807.168524,427.349617 820.434608,416.218051 835.482622,417.534582 C850.530636,418.851112 861.662202,432.117196 860.345671,447.16521 C859.029141,462.213224 845.763057,473.34479 830.715043,472.028259 Z" id="path-3"></path>
    </defs>
    <g id="social" stroke="none" stroke-width="1" fill="none" fill-rule="evenodd">
        <g id="Group-2">
            <mask id="mask-2" fill="white">
                <use xlink:href="#path-1"></use>
            </mask>
            <g id="Mask"></g>
            <g mask="url(#mask-2)">
                <g transform="translate(-46.000000, -205.000000)">
                    <rect id="Mask" fill="#1A1A1A" x="46" y="205" width="888" height="222"></rect>
                    <path d="M289.652661,325.859944 C289.353873,322.722673 288.457524,319.734841 286.963585,316.896359 C285.469647,314.057876 283.490208,311.555566 281.02521,309.389356 C278.560212,307.223145 275.647076,305.505142 272.285714,304.235294 C268.924353,302.965446 265.152215,302.330532 260.969188,302.330532 C256.039191,302.330532 251.669487,303.002794 247.859944,304.347339 C244.050401,305.691883 240.801134,307.447235 238.112045,309.613445 C235.422956,311.779656 233.331473,314.281965 231.837535,317.120448 C230.343597,319.958931 229.372551,322.872067 228.92437,325.859944 L289.652661,325.859944 Z M320.80112,357.232493 C319.008394,364.403397 316.319346,370.453757 312.733894,375.383754 C309.148441,380.31375 304.778737,384.309975 299.62465,387.372549 C294.470562,390.435123 288.64429,392.638649 282.145658,393.983193 C275.647026,395.327738 268.737665,396 261.417367,396 C250.362223,396 240.838509,394.543432 232.845938,391.630252 C224.853368,388.717072 218.280138,384.720847 213.12605,379.641457 C207.971963,374.562066 204.162477,368.549054 201.697479,361.602241 C199.232481,354.655427 198,347.073804 198,338.857143 C198,329.146543 199.531264,320.705918 202.593838,313.535014 C205.656411,306.36411 209.914072,300.425794 215.366947,295.719888 C220.819822,291.013982 227.4304,287.50328 235.19888,285.187675 C242.967359,282.872071 251.557376,281.714286 260.969188,281.714286 C269.932818,281.714286 278.112008,282.909418 285.507003,285.29972 C292.901998,287.690021 299.213793,291.238072 304.442577,295.943978 C309.671361,300.649883 313.704934,306.550852 316.543417,313.647059 C319.3819,320.743266 320.80112,328.997152 320.80112,338.408964 L320.80112,346.252101 L228.47619,346.252101 C228.924372,350.136341 229.820722,353.796435 231.165266,357.232493 C232.509811,360.668551 234.489249,363.693731 237.103641,366.308123 C239.718034,368.922515 243.004649,370.97665 246.963585,372.470588 C250.922522,373.964527 255.740401,374.711485 261.417367,374.711485 C276.804932,374.711485 286.291299,368.885212 289.876751,357.232493 L320.80112,357.232493 Z M367.171677,283.731092 L367.171677,294.487395 C371.354705,289.856186 376.620758,286.532223 382.969997,284.515406 C389.319235,282.498589 395.481638,281.490196 401.457392,281.490196 C418.488289,281.490196 432.008229,284.702115 442.017616,291.12605 C452.027003,297.549985 457.031621,307.858006 457.031621,322.05042 L457.031621,393.759104 L427.451789,393.759104 L427.451789,323.394958 C427.451789,320.108294 426.667483,317.15781 425.098848,314.543417 C423.530213,311.929025 421.401383,309.725499 418.712293,307.932773 C416.023204,306.140047 412.885981,304.758175 409.300529,303.787115 C405.715077,302.816055 401.905591,302.330532 397.871957,302.330532 C389.207115,302.330532 382.111014,304.422015 376.583442,308.605042 C371.05587,312.788069 368.292125,318.614342 368.292125,326.084034 L368.292125,393.759104 L338.712293,393.759104 L338.712293,283.731092 L367.171677,283.731092 Z M536.988181,281.714286 C547.744538,281.714286 557.081513,283.096158 564.999386,285.859944 C572.917259,288.62373 579.415794,292.507911 584.495184,297.512605 C589.574575,302.517299 593.346713,308.492962 595.811711,315.439776 C598.276709,322.386589 599.50919,330.117604 599.50919,338.633053 C599.50919,357.008495 594.317832,371.163349 583.93496,381.098039 C573.552088,391.032729 557.903319,396 536.988181,396 C516.222438,396 500.573668,391.032729 490.041403,381.098039 C479.509137,371.163349 474.243083,357.008495 474.243083,338.633053 C474.243083,330.117604 475.475564,322.386589 477.940562,315.439776 C480.405561,308.492962 484.215046,302.517299 489.369134,297.512605 C494.523221,292.507911 501.059104,288.62373 508.976977,285.859944 C516.89485,283.096158 526.231825,281.714286 536.988181,281.714286 Z M536.988181,302.330532 C531.161822,302.330532 526.194551,303.338925 522.086221,305.355742 C517.97789,307.372559 514.616579,310.098956 512.002187,313.535014 C509.387795,316.971072 507.483052,320.892602 506.287901,325.29972 C505.092751,329.706838 504.495184,334.225934 504.495184,338.857143 C504.495184,343.488352 505.092751,347.9701 506.287901,352.302521 C507.483052,356.634942 509.387795,360.444428 512.002187,363.731092 C514.616579,367.017757 517.97789,369.669458 522.086221,371.686275 C526.194551,373.703091 531.161822,374.711485 536.988181,374.711485 C542.814541,374.711485 547.781812,373.703091 551.890142,371.686275 C555.998473,369.669458 559.359784,367.017757 561.974176,363.731092 C564.588568,360.444428 566.493311,356.634942 567.688462,352.302521 C568.883612,347.9701 569.481179,343.488352 569.481179,338.857143 C569.481179,334.225934 568.883612,329.706838 567.688462,325.29972 C566.493311,320.892602 564.588568,316.971072 561.974176,313.535014 C559.359784,310.098956 555.998473,307.372559 551.890142,305.355742 C547.781812,303.338925 542.814541,302.330532 536.988181,302.330532 Z M661.538579,350.957983 L646.300484,363.731092 L646.300484,393.759104 L616.720652,393.759104 L616.720652,238.464986 L646.300484,238.464986 L646.300484,330.117647 L699.633817,283.731092 L739.073593,283.731092 L682.154826,332.134454 C686.487247,336.915057 691.081039,341.919675 695.936338,347.148459 C700.791638,352.377244 705.684213,357.680645 710.614209,363.058824 C715.544206,368.437002 720.362085,373.740403 725.067991,378.969188 C729.773897,384.197972 734.218297,389.127895 738.401324,393.759104 L701.874714,393.759104 L661.538579,350.957983 Z M751.300199,393.759104 L751.300199,283.731092 L780.880031,283.731092 L780.880031,393.759104 L751.300199,393.759104 Z M750.62793,262.666667 L750.62793,236 L781.77639,236 L781.77639,262.666667 L750.62793,262.666667 Z" id="enoki" fill="#E5E5E5"></path>
                    <g id="Group-2" stroke-width="1" fill="none">
                        <g id="Group">
                            <mask id="mask-4" fill="white">
                                <use xlink:href="#path-3"></use>
                            </mask>
                            <use id="Combined-Shape" fill="#E5E5E5" xlink:href="#path-3"></use>
                            <path d="M289.652661,325.859944 C289.353873,322.722673 288.457524,319.734841 286.963585,316.896359 C285.469647,314.057876 283.490208,311.555566 281.02521,309.389356 C278.560212,307.223145 275.647076,305.505142 272.285714,304.235294 C268.924353,302.965446 265.152215,302.330532 260.969188,302.330532 C256.039191,302.330532 251.669487,303.002794 247.859944,304.347339 C244.050401,305.691883 240.801134,307.447235 238.112045,309.613445 C235.422956,311.779656 233.331473,314.281965 231.837535,317.120448 C230.343597,319.958931 229.372551,322.872067 228.92437,325.859944 L289.652661,325.859944 Z M320.80112,357.232493 C319.008394,364.403397 316.319346,370.453757 312.733894,375.383754 C309.148441,380.31375 304.778737,384.309975 299.62465,387.372549 C294.470562,390.435123 288.64429,392.638649 282.145658,393.983193 C275.647026,395.327738 268.737665,396 261.417367,396 C250.362223,396 240.838509,394.543432 232.845938,391.630252 C224.853368,388.717072 218.280138,384.720847 213.12605,379.641457 C207.971963,374.562066 204.162477,368.549054 201.697479,361.602241 C199.232481,354.655427 198,347.073804 198,338.857143 C198,329.146543 199.531264,320.705918 202.593838,313.535014 C205.656411,306.36411 209.914072,300.425794 215.366947,295.719888 C220.819822,291.013982 227.4304,287.50328 235.19888,285.187675 C242.967359,282.872071 251.557376,281.714286 260.969188,281.714286 C269.932818,281.714286 278.112008,282.909418 285.507003,285.29972 C292.901998,287.690021 299.213793,291.238072 304.442577,295.943978 C309.671361,300.649883 313.704934,306.550852 316.543417,313.647059 C319.3819,320.743266 320.80112,328.997152 320.80112,338.408964 L320.80112,346.252101 L228.47619,346.252101 C228.924372,350.136341 229.820722,353.796435 231.165266,357.232493 C232.509811,360.668551 234.489249,363.693731 237.103641,366.308123 C239.718034,368.922515 243.004649,370.97665 246.963585,372.470588 C250.922522,373.964527 255.740401,374.711485 261.417367,374.711485 C276.804932,374.711485 286.291299,368.885212 289.876751,357.232493 L320.80112,357.232493 Z M367.171677,283.731092 L367.171677,294.487395 C371.354705,289.856186 376.620758,286.532223 382.969997,284.515406 C389.319235,282.498589 395.481638,281.490196 401.457392,281.490196 C418.488289,281.490196 432.008229,284.702115 442.017616,291.12605 C452.027003,297.549985 457.031621,307.858006 457.031621,322.05042 L457.031621,393.759104 L427.451789,393.759104 L427.451789,323.394958 C427.451789,320.108294 426.667483,317.15781 425.098848,314.543417 C423.530213,311.929025 421.401383,309.725499 418.712293,307.932773 C416.023204,306.140047 412.885981,304.758175 409.300529,303.787115 C405.715077,302.816055 401.905591,302.330532 397.871957,302.330532 C389.207115,302.330532 382.111014,304.422015 376.583442,308.605042 C371.05587,312.788069 368.292125,318.614342 368.292125,326.084034 L368.292125,393.759104 L338.712293,393.759104 L338.712293,283.731092 L367.171677,283.731092 Z M536.988181,281.714286 C547.744538,281.714286 557.081513,283.096158 564.999386,285.859944 C572.917259,288.62373 579.415794,292.507911 584.495184,297.512605 C589.574575,302.517299 593.346713,308.492962 595.811711,315.439776 C598.276709,322.386589 599.50919,330.117604 599.50919,338.633053 C599.50919,357.008495 594.317832,371.163349 583.93496,381.098039 C573.552088,391.032729 557.903319,396 536.988181,396 C516.222438,396 500.573668,391.032729 490.041403,381.098039 C479.509137,371.163349 474.243083,357.008495 474.243083,338.633053 C474.243083,330.117604 475.475564,322.386589 477.940562,315.439776 C480.405561,308.492962 484.215046,302.517299 489.369134,297.512605 C494.523221,292.507911 501.059104,288.62373 508.976977,285.859944 C516.89485,283.096158 526.231825,281.714286 536.988181,281.714286 Z M536.988181,302.330532 C531.161822,302.330532 526.194551,303.338925 522.086221,305.355742 C517.97789,307.372559 514.616579,310.098956 512.002187,313.535014 C509.387795,316.971072 507.483052,320.892602 506.287901,325.29972 C505.092751,329.706838 504.495184,334.225934 504.495184,338.857143 C504.495184,343.488352 505.092751,347.9701 506.287901,352.302521 C507.483052,356.634942 509.387795,360.444428 512.002187,363.731092 C514.616579,367.017757 517.97789,369.669458 522.086221,371.686275 C526.194551,373.703091 531.161822,374.711485 536.988181,374.711485 C542.814541,374.711485 547.781812,373.703091 551.890142,371.686275 C555.998473,369.669458 559.359784,367.017757 561.974176,363.731092 C564.588568,360.444428 566.493311,356.634942 567.688462,352.302521 C568.883612,347.9701 569.481179,343.488352 569.481179,338.857143 C569.481179,334.225934 568.883612,329.706838 567.688462,325.29972 C566.493311,320.892602 564.588568,316.971072 561.974176,313.535014 C559.359784,310.098956 555.998473,307.372559 551.890142,305.355742 C547.781812,303.338925 542.814541,302.330532 536.988181,302.330532 Z M661.538579,350.957983 L646.300484,363.731092 L646.300484,393.759104 L616.720652,393.759104 L616.720652,238.464986 L646.300484,238.464986 L646.300484,330.117647 L699.633817,283.731092 L739.073593,283.731092 L682.154826,332.134454 C686.487247,336.915057 691.081039,341.919675 695.936338,347.148459 C700.791638,352.377244 705.684213,357.680645 710.614209,363.058824 C715.544206,368.437002 720.362085,373.740403 725.067991,378.969188 C729.773897,384.197972 734.218297,389.127895 738.401324,393.759104 L701.874714,393.759104 L661.538579,350.957983 Z M751.300199,393.759104 L751.300199,283.731092 L780.880031,283.731092 L780.880031,393.759104 L751.300199,393.759104 Z M750.62793,262.666667 L750.62793,236 L781.77639,236 L781.77639,262.666667 L750.62793,262.666667 Z" id="enoki" fill="#1A1A1A" mask="url(#mask-4)"></path>
                        </g>
                    </g>
                    <g id="Group-3" stroke-width="1" fill="none" transform="translate(839.000000, 215.000000)">
                        <circle id="Oval-2" fill="#FFFFFF" cx="5" cy="5" r="5"></circle>
                        <circle id="Oval-2" fill="#1A1A1A" cx="20" cy="5" r="5"></circle>
                        <circle id="Oval-2" fill="#005FD2" cx="35" cy="5" r="5"></circle>
                        <circle id="Oval-2" fill="#F8BE15" cx="50" cy="5" r="5"></circle>
                        <circle id="Oval-2" fill="#00907A" cx="65" cy="5" r="5"></circle>
                        <circle id="Oval-2" fill="#F21307" cx="80" cy="5" r="5"></circle>
                    </g>
                </g>
            </g>
        </g>
    </g>
</svg>